<svg width="81" height="81" viewBox="0 0 81 81" fill="none" xmlns="http://www.w3.org/2000/svg">
<path d="M33.17 56.1824H47.8269H33.17ZM40.5 12.2715V15.408V12.2715ZM60.4607 20.5393L58.2432 22.7568L60.4607 20.5393ZM68.7285 40.5H65.592H68.7285ZM15.408 40.5H12.2715H15.408ZM22.7568 22.7568L20.5393 20.5393L22.7568 22.7568ZM29.4094 51.5906C27.2165 49.3972 25.7233 46.6028 25.1186 43.5609C24.5138 40.5189 24.8246 37.3659 26.0117 34.5005C27.1988 31.6351 29.2088 29.1861 31.7877 27.4631C34.3666 25.7401 37.3985 24.8204 40.5 24.8204C43.6015 24.8204 46.6334 25.7401 49.2123 27.4631C51.7912 29.1861 53.8012 31.6351 54.9883 34.5005C56.1754 37.3659 56.4862 40.5189 55.8814 43.5609C55.2767 46.6028 53.7835 49.3972 51.5907 51.5906L49.8719 53.3063C48.8892 54.2891 48.1098 55.4558 47.5781 56.7399C47.0464 58.0239 46.7728 59.4002 46.773 60.7899V62.4554C46.773 64.1191 46.1121 65.7147 44.9357 66.8911C43.7593 68.0675 42.1637 68.7284 40.5 68.7284C38.8363 68.7284 37.2407 68.0675 36.0643 66.8911C34.8879 65.7147 34.227 64.1191 34.227 62.4554V60.7899C34.227 57.9828 33.1104 55.2885 31.1282 53.3063L29.4094 51.5906Z" stroke="#EC7979" stroke-width="6.83333" stroke-linecap="round" stroke-linejoin="round"/>
<circle cx="40.5" cy="40.5" r="39.2765" stroke="#EC7979"/>
</svg>
