<svg width="81" height="81" viewBox="0 0 81 81" fill="none" xmlns="http://www.w3.org/2000/svg">
<path d="M62.6133 20.6117C64.3166 20.6117 65.95 21.285 67.1544 22.4834C68.3588 23.6818 69.0354 25.3072 69.0354 27.0021V53.9978C69.0354 55.6926 68.3588 57.3181 67.1544 58.5165C65.95 59.7149 64.3166 60.3882 62.6133 60.3882H18.3868C17.5435 60.3882 16.7084 60.2229 15.9292 59.9017C15.1501 59.5806 14.4421 59.1099 13.8458 58.5165C13.2494 57.9231 12.7764 57.2186 12.4536 56.4433C12.1309 55.668 11.9648 54.837 11.9648 53.9978V27.0021C11.9648 25.3072 12.6414 23.6818 13.8458 22.4834C15.0501 21.285 16.6836 20.6117 18.3868 20.6117H62.6133ZM62.6133 24.8719H18.3868C17.8191 24.8719 17.2746 25.0964 16.8731 25.4958C16.4717 25.8953 16.2461 26.4371 16.2461 27.0021V53.9978C16.2461 55.1736 17.2052 56.1279 18.3868 56.1279H62.6133C63.1811 56.1279 63.7256 55.9035 64.127 55.504C64.5285 55.1045 64.754 54.5627 64.754 53.9978V27.0021C64.754 26.4371 64.5285 25.8953 64.127 25.4958C63.7256 25.0964 63.1811 24.8719 62.6133 24.8719ZM25.5224 47.5932H55.492C56.0344 47.5934 56.5565 47.7984 56.9528 48.1669C57.3491 48.5353 57.5901 49.0397 57.627 49.5782C57.664 50.1166 57.4942 50.6489 57.1519 51.0676C56.8097 51.4863 56.3204 51.76 55.7831 51.8336L55.492 51.8535H25.5224C24.9801 51.8533 24.458 51.6483 24.0617 51.2798C23.6653 50.9114 23.4244 50.407 23.3874 49.8685C23.3504 49.3301 23.5202 48.7978 23.8625 48.3791C24.2048 47.9605 24.694 47.6867 25.2313 47.6131L25.5224 47.5932H55.492H25.5224ZM53.3513 37.6527C54.1083 37.6527 54.8343 37.9519 55.3696 38.4845C55.9048 39.0172 56.2056 39.7396 56.2056 40.4928C56.2056 41.2461 55.9048 41.9685 55.3696 42.5011C54.8343 43.0338 54.1083 43.333 53.3513 43.333C52.5943 43.333 51.8683 43.0338 51.3331 42.5011C50.7978 41.9685 50.4971 41.2461 50.4971 40.4928C50.4971 39.7396 50.7978 39.0172 51.3331 38.4845C51.8683 37.9519 52.5943 37.6527 53.3513 37.6527ZM36.2401 37.6527C36.9971 37.6527 37.7231 37.9519 38.2584 38.4845C38.7936 39.0172 39.0944 39.7396 39.0944 40.4928C39.0944 41.2461 38.7936 41.9685 38.2584 42.5011C37.7231 43.0338 36.9971 43.333 36.2401 43.333C35.4831 43.333 34.7571 43.0338 34.2219 42.5011C33.6866 41.9685 33.3859 41.2461 33.3859 40.4928C33.3859 39.7396 33.6866 39.0172 34.2219 38.4845C34.7571 37.9519 35.4831 37.6527 36.2401 37.6527ZM27.6774 37.6527C28.4344 37.6527 29.1604 37.9519 29.6956 38.4845C30.2309 39.0172 30.5316 39.7396 30.5316 40.4928C30.5316 41.2461 30.2309 41.9685 29.6956 42.5011C29.1604 43.0338 28.4344 43.333 27.6774 43.333C26.9204 43.333 26.1944 43.0338 25.6591 42.5011C25.1239 41.9685 24.8231 41.2461 24.8231 40.4928C24.8231 39.7396 25.1239 39.0172 25.6591 38.4845C26.1944 37.9519 26.9204 37.6527 27.6774 37.6527ZM44.8028 37.6527C45.5598 37.6527 46.2858 37.9519 46.8211 38.4845C47.3564 39.0172 47.6571 39.7396 47.6571 40.4928C47.6571 41.2461 47.3564 41.9685 46.8211 42.5011C46.2858 43.0338 45.5598 43.333 44.8028 43.333C44.0459 43.333 43.3199 43.0338 42.7846 42.5011C42.2493 41.9685 41.9486 41.2461 41.9486 40.4928C41.9486 39.7396 42.2493 39.0172 42.7846 38.4845C43.3199 37.9519 44.0459 37.6527 44.8028 37.6527ZM23.3818 29.1322C24.1387 29.1322 24.8647 29.4314 25.4 29.964C25.9353 30.4967 26.236 31.2191 26.236 31.9723C26.236 32.7256 25.9353 33.448 25.4 33.9806C24.8647 34.5133 24.1387 34.8125 23.3818 34.8125C22.6248 34.8125 21.8988 34.5133 21.3635 33.9806C20.8282 33.448 20.5275 32.7256 20.5275 31.9723C20.5275 31.2191 20.8282 30.4967 21.3635 29.964C21.8988 29.4314 22.6248 29.1322 23.3818 29.1322ZM31.9302 29.1322C32.6872 29.1322 33.4132 29.4314 33.9485 29.964C34.4837 30.4967 34.7845 31.2191 34.7845 31.9723C34.7845 32.7256 34.4837 33.448 33.9485 33.9806C33.4132 34.5133 32.6872 34.8125 31.9302 34.8125C31.1732 34.8125 30.4472 34.5133 29.912 33.9806C29.3767 33.448 29.076 32.7256 29.076 31.9723C29.076 31.2191 29.3767 30.4967 29.912 29.964C30.4472 29.4314 31.1732 29.1322 31.9302 29.1322ZM40.4929 29.1322C41.2499 29.1322 41.9759 29.4314 42.5112 29.964C43.0465 30.4967 43.3472 31.2191 43.3472 31.9723C43.3472 32.7256 43.0465 33.448 42.5112 33.9806C41.9759 34.5133 41.2499 34.8125 40.4929 34.8125C39.7359 34.8125 39.01 34.5133 38.4747 33.9806C37.9394 33.448 37.6387 32.7256 37.6387 31.9723C37.6387 31.2191 37.9394 30.4967 38.4747 29.964C39.01 29.4314 39.7359 29.1322 40.4929 29.1322ZM49.0557 29.1322C49.8127 29.1322 50.5387 29.4314 51.0739 29.964C51.6092 30.4967 51.9099 31.2191 51.9099 31.9723C51.9099 32.7256 51.6092 33.448 51.0739 33.9806C50.5387 34.5133 49.8127 34.8125 49.0557 34.8125C48.2987 34.8125 47.5727 34.5133 47.0374 33.9806C46.5021 33.448 46.2014 32.7256 46.2014 31.9723C46.2014 31.2191 46.5021 30.4967 47.0374 29.964C47.5727 29.4314 48.2987 29.1322 49.0557 29.1322ZM57.6184 29.1322C58.3754 29.1322 59.1014 29.4314 59.6367 29.964C60.1719 30.4967 60.4726 31.2191 60.4726 31.9723C60.4726 32.7256 60.1719 33.448 59.6367 33.9806C59.1014 34.5133 58.3754 34.8125 57.6184 34.8125C56.8614 34.8125 56.1354 34.5133 55.6001 33.9806C55.0649 33.448 54.7642 32.7256 54.7642 31.9723C54.7642 31.2191 55.0649 30.4967 55.6001 29.964C56.1354 29.4314 56.8614 29.1322 57.6184 29.1322Z" fill="#EC7979"/>
<circle cx="40.5001" cy="40.5" r="39.2765" stroke="#EC7979"/>
</svg>
