<svg width="81" height="81" viewBox="0 0 81 81" fill="none" xmlns="http://www.w3.org/2000/svg">
<path d="M32.485 68.8723C32.0754 68.6962 31.7351 68.3863 31.5177 67.9914C31.3003 67.5965 31.2182 67.1391 31.2843 66.6914L34.9263 42.5386H25.2609C24.9545 42.547 24.6502 42.4836 24.3717 42.3532C24.0931 42.2229 23.8477 42.0291 23.6543 41.7869C23.461 41.5446 23.3248 41.2604 23.2564 40.956C23.188 40.6517 23.1891 40.3354 23.2598 40.0316L29.2631 13.5349C29.3688 13.0789 29.6254 12.6738 29.9899 12.388C30.3544 12.1022 30.8044 11.9529 31.2643 11.9655H51.2756C51.5745 11.9644 51.8699 12.0316 52.14 12.1621C52.4101 12.2926 52.6481 12.4831 52.8364 12.7196C53.0274 12.9587 53.1627 13.2389 53.232 13.539C53.3013 13.8391 53.3029 14.1513 53.2367 14.4521L49.7747 30.3093H59.2801C59.6551 30.3086 60.0228 30.4152 60.3413 30.617C60.6597 30.8188 60.9161 31.1077 61.0811 31.4507C61.2245 31.78 61.2797 32.1421 61.241 32.5001C61.2023 32.8581 61.0712 33.1993 60.861 33.4889L34.8463 68.1385C34.6705 68.404 34.4357 68.6235 34.161 68.7793C33.8864 68.9351 33.5795 69.0228 33.2654 69.0353C32.9976 69.0302 32.7331 68.9749 32.485 68.8723ZM44.7719 34.3858L48.7741 16.0419H32.8652L27.7823 38.4622H39.609L36.4272 59.415L55.2778 34.3858H44.7719Z" fill="#EC7979"/>
<circle cx="40.5" cy="40.5" r="39.2765" stroke="#EC7979"/>
</svg>
